<mxfile host="app.diagrams.net" modified="2022-11-21T06:05:18.522Z" agent="5.0 (Windows NT 10.0; Win64; x64) AppleWebKit/537.36 (KHTML, like Gecko) Chrome/107.0.0.0 Safari/537.36" etag="NO3D9vQkh7ZlN_1FGUal" version="20.5.3" type="github">
  <diagram id="TotXfrjkB3XnUqcxdG7I" name="第 1 页">
    <mxGraphModel dx="1422" dy="738" grid="1" gridSize="10" guides="1" tooltips="1" connect="1" arrows="1" fold="1" page="1" pageScale="1" pageWidth="827" pageHeight="1169" math="0" shadow="0">
      <root>
        <mxCell id="0" />
        <mxCell id="1" parent="0" />
        <mxCell id="2kvlSKjpoYGniqT9ICAx-7" style="edgeStyle=orthogonalEdgeStyle;rounded=0;orthogonalLoop=1;jettySize=auto;html=1;exitX=0.5;exitY=1;exitDx=0;exitDy=0;fontSize=15;" edge="1" parent="1" source="2kvlSKjpoYGniqT9ICAx-2" target="2kvlSKjpoYGniqT9ICAx-6">
          <mxGeometry relative="1" as="geometry">
            <Array as="points">
              <mxPoint x="290" y="90" />
              <mxPoint x="290" y="135" />
              <mxPoint x="414" y="135" />
            </Array>
          </mxGeometry>
        </mxCell>
        <mxCell id="2kvlSKjpoYGniqT9ICAx-2" value="订单状态流转为待发货 （一根线）" style="rounded=1;whiteSpace=wrap;html=1;fontSize=15;" vertex="1" parent="1">
          <mxGeometry x="170" y="30" width="120" height="60" as="geometry" />
        </mxCell>
        <mxCell id="2kvlSKjpoYGniqT9ICAx-9" value="" style="edgeStyle=orthogonalEdgeStyle;rounded=0;orthogonalLoop=1;jettySize=auto;html=1;fontSize=15;" edge="1" parent="1" source="2kvlSKjpoYGniqT9ICAx-6" target="2kvlSKjpoYGniqT9ICAx-8">
          <mxGeometry relative="1" as="geometry" />
        </mxCell>
        <mxCell id="2kvlSKjpoYGniqT9ICAx-10" value="天路" style="edgeLabel;html=1;align=center;verticalAlign=middle;resizable=0;points=[];fontSize=15;" vertex="1" connectable="0" parent="2kvlSKjpoYGniqT9ICAx-9">
          <mxGeometry x="-0.25" y="3" relative="1" as="geometry">
            <mxPoint as="offset" />
          </mxGeometry>
        </mxCell>
        <mxCell id="2kvlSKjpoYGniqT9ICAx-40" style="edgeStyle=orthogonalEdgeStyle;rounded=0;orthogonalLoop=1;jettySize=auto;html=1;exitX=1;exitY=0.5;exitDx=0;exitDy=0;fontSize=15;" edge="1" parent="1" source="2kvlSKjpoYGniqT9ICAx-6" target="2kvlSKjpoYGniqT9ICAx-41">
          <mxGeometry relative="1" as="geometry">
            <mxPoint x="620" y="235" as="targetPoint" />
          </mxGeometry>
        </mxCell>
        <mxCell id="2kvlSKjpoYGniqT9ICAx-42" value="卖场" style="edgeLabel;html=1;align=center;verticalAlign=middle;resizable=0;points=[];fontSize=15;" vertex="1" connectable="0" parent="2kvlSKjpoYGniqT9ICAx-40">
          <mxGeometry x="-0.1829" y="1" relative="1" as="geometry">
            <mxPoint as="offset" />
          </mxGeometry>
        </mxCell>
        <mxCell id="2kvlSKjpoYGniqT9ICAx-6" value="推送天路/卖场" style="rhombus;whiteSpace=wrap;html=1;fontSize=15;rounded=1;" vertex="1" parent="1">
          <mxGeometry x="352" y="180" width="124" height="110" as="geometry" />
        </mxCell>
        <mxCell id="2kvlSKjpoYGniqT9ICAx-13" style="edgeStyle=orthogonalEdgeStyle;rounded=0;orthogonalLoop=1;jettySize=auto;html=1;exitX=0.5;exitY=1;exitDx=0;exitDy=0;fontSize=15;" edge="1" parent="1" source="2kvlSKjpoYGniqT9ICAx-8" target="2kvlSKjpoYGniqT9ICAx-12">
          <mxGeometry relative="1" as="geometry" />
        </mxCell>
        <mxCell id="2kvlSKjpoYGniqT9ICAx-8" value="创建中台送检回收单" style="whiteSpace=wrap;html=1;fontSize=15;rounded=1;" vertex="1" parent="1">
          <mxGeometry x="354" y="380" width="120" height="60" as="geometry" />
        </mxCell>
        <mxCell id="2kvlSKjpoYGniqT9ICAx-18" value="" style="swimlane;startSize=0;fontSize=15;dashed=1;" vertex="1" parent="1">
          <mxGeometry x="170" y="360" width="355" height="420" as="geometry" />
        </mxCell>
        <mxCell id="2kvlSKjpoYGniqT9ICAx-20" value="中台回收流程&lt;br&gt;" style="text;html=1;align=center;verticalAlign=middle;resizable=0;points=[];autosize=1;strokeColor=none;fillColor=none;fontSize=15;fontStyle=1" vertex="1" parent="2kvlSKjpoYGniqT9ICAx-18">
          <mxGeometry x="6" y="30" width="110" height="30" as="geometry" />
        </mxCell>
        <mxCell id="2kvlSKjpoYGniqT9ICAx-33" style="edgeStyle=orthogonalEdgeStyle;rounded=0;orthogonalLoop=1;jettySize=auto;html=1;entryX=0.5;entryY=0;entryDx=0;entryDy=0;fontSize=15;" edge="1" parent="2kvlSKjpoYGniqT9ICAx-18" source="2kvlSKjpoYGniqT9ICAx-12" target="2kvlSKjpoYGniqT9ICAx-30">
          <mxGeometry relative="1" as="geometry" />
        </mxCell>
        <mxCell id="2kvlSKjpoYGniqT9ICAx-12" value="触发送检单发货" style="whiteSpace=wrap;html=1;fontSize=15;rounded=1;" vertex="1" parent="2kvlSKjpoYGniqT9ICAx-18">
          <mxGeometry x="184" y="120" width="120" height="60" as="geometry" />
        </mxCell>
        <mxCell id="2kvlSKjpoYGniqT9ICAx-31" value="质检完成" style="whiteSpace=wrap;html=1;fontSize=15;rounded=1;" vertex="1" parent="2kvlSKjpoYGniqT9ICAx-18">
          <mxGeometry x="184" y="320" width="120" height="60" as="geometry" />
        </mxCell>
        <mxCell id="2kvlSKjpoYGniqT9ICAx-34" style="edgeStyle=orthogonalEdgeStyle;rounded=0;orthogonalLoop=1;jettySize=auto;html=1;exitX=0.5;exitY=1;exitDx=0;exitDy=0;fontSize=15;" edge="1" parent="2kvlSKjpoYGniqT9ICAx-18" source="2kvlSKjpoYGniqT9ICAx-30" target="2kvlSKjpoYGniqT9ICAx-31">
          <mxGeometry relative="1" as="geometry" />
        </mxCell>
        <mxCell id="2kvlSKjpoYGniqT9ICAx-30" value="回收商收货" style="whiteSpace=wrap;html=1;fontSize=15;rounded=1;" vertex="1" parent="2kvlSKjpoYGniqT9ICAx-18">
          <mxGeometry x="184" y="225" width="120" height="60" as="geometry" />
        </mxCell>
        <mxCell id="2kvlSKjpoYGniqT9ICAx-35" value="回收完成" style="whiteSpace=wrap;html=1;fontSize=15;rounded=1;" vertex="1" parent="1">
          <mxGeometry x="640" y="585" width="120" height="60" as="geometry" />
        </mxCell>
        <mxCell id="2kvlSKjpoYGniqT9ICAx-36" style="edgeStyle=orthogonalEdgeStyle;rounded=0;orthogonalLoop=1;jettySize=auto;html=1;exitX=1;exitY=0.5;exitDx=0;exitDy=0;fontSize=15;" edge="1" parent="1" source="2kvlSKjpoYGniqT9ICAx-30" target="2kvlSKjpoYGniqT9ICAx-35">
          <mxGeometry relative="1" as="geometry" />
        </mxCell>
        <mxCell id="2kvlSKjpoYGniqT9ICAx-37" value="推送天路" style="whiteSpace=wrap;html=1;fontSize=15;rounded=1;" vertex="1" parent="1">
          <mxGeometry x="640" y="680" width="120" height="60" as="geometry" />
        </mxCell>
        <mxCell id="2kvlSKjpoYGniqT9ICAx-38" style="edgeStyle=orthogonalEdgeStyle;rounded=0;orthogonalLoop=1;jettySize=auto;html=1;exitX=1;exitY=0.5;exitDx=0;exitDy=0;fontSize=15;" edge="1" parent="1" source="2kvlSKjpoYGniqT9ICAx-31" target="2kvlSKjpoYGniqT9ICAx-37">
          <mxGeometry relative="1" as="geometry" />
        </mxCell>
        <mxCell id="2kvlSKjpoYGniqT9ICAx-41" value="推送采货侠卖场" style="whiteSpace=wrap;html=1;fontSize=15;rounded=1;" vertex="1" parent="1">
          <mxGeometry x="640" y="205" width="120" height="60" as="geometry" />
        </mxCell>
        <mxCell id="2kvlSKjpoYGniqT9ICAx-44" style="edgeStyle=orthogonalEdgeStyle;rounded=0;orthogonalLoop=1;jettySize=auto;html=1;entryX=0.5;entryY=0;entryDx=0;entryDy=0;fontSize=15;exitX=0;exitY=1;exitDx=0;exitDy=0;" edge="1" parent="1" source="2kvlSKjpoYGniqT9ICAx-43" target="2kvlSKjpoYGniqT9ICAx-6">
          <mxGeometry relative="1" as="geometry" />
        </mxCell>
        <mxCell id="2kvlSKjpoYGniqT9ICAx-43" value="订单状态流转为待收货（零售通）" style="rounded=1;whiteSpace=wrap;html=1;fontSize=15;" vertex="1" parent="1">
          <mxGeometry x="530" y="30" width="120" height="60" as="geometry" />
        </mxCell>
      </root>
    </mxGraphModel>
  </diagram>
</mxfile>
